<svg width="1117" height="1117" viewBox="0 0 1117 1117" fill="none" xmlns="http://www.w3.org/2000/svg">
<g opacity="0.2" clip-path="url(#clip0_1230_16)">
<mask id="mask0_1230_16" style="mask-type:luminance" maskUnits="userSpaceOnUse" x="0" y="0" width="1117" height="1117">
<path d="M1117 0H0V1117H1117V0Z" fill="white"/>
</mask>
<g mask="url(#mask0_1230_16)">
<path fill-rule="evenodd" clip-rule="evenodd" d="M0 0C0 308.451 250.049 558.5 558.5 558.5C250.049 558.5 0 808.552 0 1117H67.02C67.02 845.563 287.063 625.52 558.5 625.52C829.937 625.52 1049.98 845.563 1049.98 1117H1117C1117 808.552 866.948 558.5 558.5 558.5C866.948 558.5 1117 308.451 1117 0H1049.98C1049.98 271.437 829.937 491.48 558.5 491.48C287.063 491.48 67.02 271.437 67.02 0H0ZM134.04 0C134.04 234.423 324.077 424.46 558.5 424.46C792.925 424.46 982.96 234.423 982.96 0H915.94C915.94 197.409 755.907 357.44 558.5 357.44C361.091 357.44 201.06 197.409 201.06 0H134.04ZM268.08 0C268.08 160.395 398.105 290.42 558.5 290.42C718.896 290.42 848.92 160.395 848.92 0H781.9C781.9 123.38 681.878 223.4 558.5 223.4C435.12 223.4 335.1 123.38 335.1 0H268.08ZM558.5 692.54C792.925 692.54 982.96 882.575 982.96 1117H915.94C915.94 919.593 755.907 759.56 558.5 759.56C361.091 759.56 201.06 919.593 201.06 1117H134.04C134.04 882.575 324.077 692.54 558.5 692.54ZM558.5 826.58C718.896 826.58 848.92 956.604 848.92 1117H781.9C781.9 993.622 681.878 893.6 558.5 893.6C435.12 893.6 335.1 993.622 335.1 1117H268.08C268.08 956.604 398.105 826.58 558.5 826.58Z" fill="url(#paint0_linear_1230_16)"/>
</g>
</g>
<defs>
<linearGradient id="paint0_linear_1230_16" x1="558.5" y1="0" x2="558.5" y2="1117" gradientUnits="userSpaceOnUse">
<stop stop-color="#57C9FA"/>
<stop offset="1" stop-color="#C8C2EA"/>
</linearGradient>
<clipPath id="clip0_1230_16">
<rect width="1117" height="1117" fill="white"/>
</clipPath>
</defs>
</svg>
