<svg width="1728" height="1117" viewBox="0 0 1728 1117" fill="none" xmlns="http://www.w3.org/2000/svg">
<path fill-rule="evenodd" clip-rule="evenodd" d="M0.0999999 0C0.0447717 0 0 0.0447723 0 0.100001V443C0 444.657 -1.34315 446 -3 446V446C-4.65685 446 -6 447.343 -6 449V668C-6 669.657 -4.65685 671 -3 671V671C-1.34315 671 0 672.343 0 674V1116.9C0 1116.96 0.0447812 1117 0.10001 1117H1727.9C1727.96 1117 1728 1116.96 1728 1116.9V673.5C1728 672.119 1729.12 671 1730.5 671V671C1731.88 671 1733 669.881 1733 668.5V448.5C1733 447.119 1731.88 446 1730.5 446V446C1729.12 446 1728 444.881 1728 443.5V0.1C1728 0.0447715 1727.96 0 1727.9 0H0.0999999ZM29 671C21.8203 671 16 676.82 16 684V1070C16 1087.67 30.3269 1102 48 1102H1681C1698.67 1102 1713 1087.67 1713 1070V684C1713 676.82 1707.18 671 1700 671H1660C1652.82 671 1647 665.18 1647 658V459C1647 451.82 1652.82 446 1660 446H1700C1707.18 446 1713 440.18 1713 433V47C1713 29.3269 1698.67 15 1681 15H48C30.3269 15 16 29.3269 16 47V433C16 440.18 21.8203 446 29 446H67C74.1797 446 80 451.82 80 459V658C80 665.18 74.1797 671 67 671H29Z" fill="#D9D9D9"/>
</svg>
